<?xml version="1.0" encoding="UTF-8"?>
<svg version="1.1" xmlns="http://www.w3.org/2000/svg" width="109" height="109">
<path d="M0 0 C1.23180496 -0.0127597 2.46360992 -0.02551941 3.73274231 -0.03866577 C5.0515892 -0.04089142 6.3704361 -0.04311707 7.72924805 -0.04541016 C9.11158889 -0.05184678 10.4939284 -0.05857577 11.87626648 -0.06558228 C14.76861729 -0.07752621 17.66084894 -0.08126615 20.55322266 -0.08007812 C24.23833978 -0.07987522 27.92268324 -0.10715941 31.60761738 -0.14162254 C34.46202523 -0.16398959 37.31624985 -0.16791268 40.17073631 -0.16685867 C42.18299969 -0.17033037 44.19520588 -0.19193164 46.20735168 -0.21395874 C53.6394577 -0.17711584 59.2096121 0.5539175 65.6784668 4.29052734 C66.7303418 4.84740234 67.7822168 5.40427734 68.8659668 5.97802734 C74.03066475 10.22455677 77.52886295 15.98052624 79.6784668 22.29052734 C79.95262146 25.29216003 79.95262146 25.29216003 79.98486328 28.66625977 C80.00085068 29.93495407 80.01683807 31.20364838 80.03330994 32.51078796 C80.03968915 33.88918656 80.0450811 35.26759002 80.04956055 36.64599609 C80.05853814 38.07221058 80.06766018 39.49842416 80.07691956 40.92463684 C80.09338531 43.91291585 80.10110468 46.90108319 80.10400391 49.8894043 C80.10937181 53.69453689 80.14699414 57.49859984 80.19274807 61.30343151 C80.22269059 64.25053098 80.22973122 67.19737882 80.23073006 70.14461708 C80.23490185 71.54590035 80.24721227 72.94718652 80.2682476 74.3483181 C80.41090424 84.67608154 79.05776318 92.10451846 72.3034668 100.10302734 C65.33753117 105.9079737 59.78326761 109.51443624 50.35693359 109.58105469 C49.12512863 109.59381439 47.89332367 109.6065741 46.62419128 109.61972046 C45.30534439 109.62194611 43.9864975 109.62417175 42.62768555 109.62646484 C41.2453447 109.63290147 39.86300519 109.63963046 38.48066711 109.64663696 C35.5883163 109.6585809 32.69608465 109.66232083 29.80371094 109.66113281 C26.11859382 109.66092991 22.43425036 109.6882141 18.74931622 109.72267723 C15.89490837 109.74504428 13.04068375 109.74896737 10.18619728 109.74791336 C8.1739339 109.75138505 6.16172772 109.77298632 4.14958191 109.79501343 C-6.61502769 109.74165043 -13.7152453 107.43423813 -21.59887695 100.08349609 C-27.26422479 94.18690957 -29.55483761 88.06588798 -29.61206055 79.96899414 C-29.62482025 78.73718918 -29.63757996 77.50538422 -29.65072632 76.23625183 C-29.65295197 74.91740494 -29.65517761 73.59855804 -29.6574707 72.23974609 C-29.66390732 70.85740525 -29.67063631 69.47506574 -29.67764282 68.09272766 C-29.68958676 65.20037685 -29.69332669 62.3081452 -29.69213867 59.41577148 C-29.69193577 55.73065436 -29.71921996 52.0463109 -29.75368309 48.36137676 C-29.77605014 45.50696891 -29.77997323 42.65274429 -29.77891922 39.79825783 C-29.78239091 37.78599445 -29.80399218 35.77378827 -29.82601929 33.76164246 C-29.77265629 22.99703286 -27.46524399 15.89681525 -20.11450195 8.01318359 C-14.21791543 2.34783575 -8.09689384 0.05722293 0 0 Z " fill="#1DD7CF" transform="translate(29.321533203125,-0.29052734375)"/>
<path d="M0 0 C0.804375 -0.00128906 1.60875 -0.00257812 2.4375 -0.00390625 C3.283125 -0.00003906 4.12875 0.00382812 5 0.0078125 C6.2684375 0.00201172 6.2684375 0.00201172 7.5625 -0.00390625 C8.366875 -0.00261719 9.17125 -0.00132813 10 0 C10.7425 0.00112793 11.485 0.00225586 12.25 0.00341797 C14 0.1328125 14 0.1328125 15 1.1328125 C15.08685603 2.69453995 15.10702219 4.26010594 15.09765625 5.82421875 C15.09443359 6.76845703 15.09121094 7.71269531 15.08789062 8.68554688 C15.07532227 10.17538086 15.07532227 10.17538086 15.0625 11.6953125 C15.05798828 12.69240234 15.05347656 13.68949219 15.04882812 14.71679688 C15.03700007 17.18886099 15.02051849 19.66080768 15 22.1328125 C13.35 21.8028125 11.7 21.4728125 10 21.1328125 C9.505 16.6778125 9.505 16.6778125 9 12.1328125 C8.45061768 12.71361572 7.90123535 13.29441895 7.33520508 13.89282227 C4.84337023 16.50918318 2.32852265 19.10221257 -0.1875 21.6953125 C-1.05181641 22.60990234 -1.91613281 23.52449219 -2.80664062 24.46679688 C-3.64775391 25.32724609 -4.48886719 26.18769531 -5.35546875 27.07421875 C-6.12528076 27.87545166 -6.89509277 28.67668457 -7.68823242 29.50219727 C-10 31.1328125 -10 31.1328125 -12.63671875 31.015625 C-15.8135332 29.82891415 -17.49544217 28.02570214 -19.8125 25.5703125 C-20.60269531 24.74402344 -21.39289062 23.91773437 -22.20703125 23.06640625 C-22.79871094 22.42832031 -23.39039062 21.79023437 -24 21.1328125 C-27.16608791 22.52166857 -29.18063806 24.12308995 -31.53125 26.64453125 C-32.17707031 27.31935547 -32.82289062 27.99417969 -33.48828125 28.68945312 C-34.83528809 30.11623416 -36.1764053 31.54859743 -37.51171875 32.98632812 C-38.15753906 33.65728516 -38.80335937 34.32824219 -39.46875 35.01953125 C-40.05076172 35.64045654 -40.63277344 36.26138184 -41.23242188 36.90112305 C-43 38.1328125 -43 38.1328125 -45.22070312 37.82739258 C-46.10145508 37.48357544 -46.10145508 37.48357544 -47 37.1328125 C-47.3986863 33.80016587 -47.24779519 32.47411206 -45.2434082 29.71337891 C-42.61454589 27.04536612 -39.98223031 24.38504883 -37.3125 21.7578125 C-35.94448242 20.34822266 -35.94448242 20.34822266 -34.54882812 18.91015625 C-33.66259766 18.02714844 -32.77636719 17.14414062 -31.86328125 16.234375 C-31.05157471 15.42307129 -30.23986816 14.61176758 -29.40356445 13.77587891 C-27 12.1328125 -27 12.1328125 -24.34960938 12.24731445 C-21.1851981 13.43988716 -19.49811961 15.24674545 -17.1875 17.6953125 C-16.39730469 18.52160156 -15.60710938 19.34789063 -14.79296875 20.19921875 C-14.20128906 20.83730469 -13.60960937 21.47539063 -13 22.1328125 C-8.67495164 20.47417745 -5.90581175 17.2617715 -2.75 14.0078125 C-2.19570312 13.44449219 -1.64140625 12.88117187 -1.0703125 12.30078125 C0.29104485 10.91595222 1.64614859 9.52498046 3 8.1328125 C1.329375 7.9471875 1.329375 7.9471875 -0.375 7.7578125 C-4 7.1328125 -4 7.1328125 -6 5.1328125 C-5.31465482 0.60953428 -4.41970859 0.00671397 0 0 Z " fill="#F4FDFC" transform="translate(69,36.8671875)"/>
</svg>
